<svg width="109" height="57" viewBox="0 0 109 57" fill="none" xmlns="http://www.w3.org/2000/svg">
<path d="M107.059 54.5145H104.351C61.0713 -4.66585 65.4184 1.1878 64.9834 0.688996C64.8728 0.57616 64.7469 0.479505 64.6093 0.401896C64.4628 0.359846 64.428 0.316346 64.1728 0.316346C64.1598 0.316346 64.1511 0.309097 64.1395 0.309097C64.1148 0.310547 64.0945 0.326497 64.0699 0.329397C63.906 0.347582 63.7478 0.400472 63.6059 0.484548C63.462 0.568715 63.3398 0.685414 63.2492 0.825296L48.1706 25.3448C36.7606 9.48325 37.7205 10.6954 37.3797 10.5316C37.2318 10.4649 37.0707 10.4327 36.9085 10.4373L36.8911 10.433C36.5387 10.4866 36.3009 10.5548 36.0747 10.8288C36.0559 10.852 36.0254 10.8622 36.008 10.8854L4.64163 54.5145H1.94028C1.65186 54.5145 1.37525 54.629 1.17131 54.833C0.967359 55.0369 0.852783 55.3135 0.852783 55.6019C0.852783 55.8904 0.967359 56.167 1.17131 56.3709C1.37525 56.5749 1.65186 56.6894 1.94028 56.6894H107.058C107.346 56.6896 107.623 56.5753 107.827 56.3714C108.031 56.1676 108.146 55.8911 108.146 55.6027C108.146 55.3142 108.032 55.0376 107.828 54.8335C107.624 54.6294 107.348 54.5146 107.059 54.5145ZM61.2627 8.22319L54.4854 34.0955L49.5626 27.2501L61.2627 8.22319ZM7.36763 54.4666L34.21 17.1305L23.7715 54.4666H7.36763ZM26.0161 54.5145L29.1974 43.1377H35.8674C36.1558 43.1377 36.4324 43.0232 36.6364 42.8192C36.8403 42.6153 36.9549 42.3387 36.9549 42.0502C36.9549 41.7618 36.8403 41.4852 36.6364 41.2813C36.4324 41.0773 36.1558 40.9627 35.8674 40.9627H29.8049L32.9862 29.586H37.561C37.8494 29.586 38.126 29.4715 38.33 29.2675C38.5339 29.0636 38.6485 28.787 38.6485 28.4985C38.6485 28.2101 38.5339 27.9335 38.33 27.7296C38.126 27.5256 37.8494 27.411 37.561 27.411H33.5938L37.342 14.0072L47.3601 27.9417L47.363 27.949L51.8493 34.1883H44.3383C44.0499 34.1883 43.7733 34.3029 43.5693 34.5069C43.3654 34.7108 43.2508 34.9874 43.2508 35.2758C43.2508 35.5643 43.3654 35.8409 43.5693 36.0448C43.7733 36.2488 44.0499 36.3633 44.3383 36.3633H53.4138L61.5933 47.74H56.1964C55.908 47.74 55.6314 47.8546 55.4274 48.0586C55.2235 48.2625 55.1089 48.5391 55.1089 48.8275C55.1089 49.116 55.2235 49.3926 55.4274 49.5965C55.6314 49.8005 55.908 49.915 56.1964 49.915H63.1564L66.4638 54.5159L26.0161 54.5145ZM69.142 54.5145L60.9625 43.1377H69.7437C70.0322 43.1377 70.3088 43.0232 70.5127 42.8192C70.7167 42.6153 70.8312 42.3387 70.8312 42.0502C70.8312 41.7618 70.7167 41.4852 70.5127 41.2813C70.3088 41.0773 70.0322 40.9627 69.7437 40.9627H59.398L56.1239 36.4097L57.9117 29.586H69.7423C70.0307 29.586 70.3073 29.4715 70.5113 29.2675C70.7152 29.0636 70.8298 28.787 70.8298 28.4985C70.8298 28.2101 70.7152 27.9335 70.5113 27.7296C70.3073 27.5256 70.0307 27.411 69.7423 27.411H58.4801L61.4599 16.0343H64.6586C64.947 16.0343 65.2236 15.9198 65.4276 15.7158C65.6315 15.5119 65.7461 15.2353 65.7461 14.9468C65.7461 14.6584 65.6315 14.3818 65.4276 14.1779C65.2236 13.9739 64.947 13.8593 64.6586 13.8593H62.0297L64.6499 3.87755L76.898 20.6366H71.4402C71.1518 20.6366 70.8752 20.7512 70.6713 20.9552C70.4673 21.1591 70.3527 21.4357 70.3527 21.7241C70.3527 22.0126 70.4673 22.2892 70.6713 22.4931C70.8752 22.6971 71.1518 22.8116 71.4402 22.8116H78.4887L86.803 34.1883H81.6047C81.3163 34.1883 81.0397 34.3029 80.8358 34.5069C80.6318 34.7108 80.5172 34.9874 80.5172 35.2758C80.5172 35.5643 80.6318 35.8409 80.8358 36.0448C81.0397 36.2488 81.3163 36.3633 81.6047 36.3633H88.3922L96.7065 47.74H78.2146C77.9262 47.74 77.6496 47.8546 77.4457 48.0586C77.2417 48.2625 77.1271 48.5391 77.1271 48.8275C77.1271 49.116 77.2417 49.3926 77.4457 49.5965C77.6496 49.8005 77.9262 49.915 78.2146 49.915H98.2942L101.657 54.5159L69.142 54.5145Z" fill="#E8DAD6"/>
</svg>
