<svg width="28" height="41" viewBox="0 0 28 41" fill="none" xmlns="http://www.w3.org/2000/svg">
<path d="M23.0051 9.21487C23.0051 4.13384 18.9653 0 14 0C9.03466 0 4.99494 4.13384 4.99494 9.21487C4.99494 10.9101 5.36835 12.8974 6.13017 14.7476H0V20.8876H10.9999V41H17.0001V20.8876H28V14.7476H21.8698C22.6318 12.8976 23.0051 10.9101 23.0051 9.21487ZM12.0579 13.2318C11.4121 12.1091 10.9951 10.5323 10.9951 9.21487C10.9951 7.51942 12.3432 6.13997 14 6.13997C15.6568 6.13997 17.0049 7.51942 17.0049 9.21487C17.0049 10.5323 16.5877 12.1091 15.9421 13.2318C15.0702 14.7476 14.2646 14.7476 14 14.7476C13.7354 14.7476 12.9298 14.7476 12.0579 13.2318Z" fill="#E8DAD6"/>
</svg>
