<svg width="49" height="63" viewBox="0 0 49 63" fill="none" xmlns="http://www.w3.org/2000/svg">
<path d="M8.3272 7.73031C11.8504 4.12078 16.6807 2.04688 21.7527 2.04688H22.3337C27.2605 2.04688 32.0827 3.41188 36.2782 5.99461C41.0628 8.93789 44.7333 13.235 46.8945 18.4208L48.7958 22.984C48.9268 23.2978 48.8923 23.6553 48.7034 23.9377L46.6721 26.9845C46.4192 27.3644 45.951 27.5218 45.5285 27.3918L45.7753 28.1312C45.9135 28.5455 45.7713 29.0026 45.4209 29.2646L41.3584 32.3115C41.0506 32.543 40.6393 32.5786 40.295 32.408L39.7344 32.1277V33.5312C39.7344 33.9162 39.517 34.2676 39.1727 34.4402L35.1102 36.4715C34.7192 36.6665 34.248 36.5903 33.9382 36.2805L33.6406 35.983V36.5781C33.6406 36.8635 33.5147 37.1235 33.3156 37.3114L34.9102 38.1087C37.2268 39.2685 39.0326 41.2297 39.9944 43.6347C40.4961 44.888 40.75 46.2073 40.75 47.558V62.9844H38.7188V47.558C38.7188 47.0248 38.668 46.4977 38.5705 45.9808C34.509 46.6998 30.867 48.987 28.4874 52.3863C27.0025 54.508 25.0292 56.3077 22.7806 57.5924L20.9778 58.6233C19.4727 59.4825 17.7603 59.9375 16.0256 59.9375C14.2016 59.9375 12.4151 59.4256 10.8652 58.4892C10.4874 59.9477 10.2813 61.4548 10.2813 62.9844H8.25002C8.25002 58.153 10.002 53.4903 13.1829 49.8564L14.5063 48.3441C15.2111 47.5377 15.8692 46.6785 16.4613 45.7898C17.0697 44.8778 17.3906 43.8165 17.3906 42.7196C17.3906 42.1234 17.2952 41.5344 17.1063 40.9687L14.6271 33.5312H10.2813C8.62072 33.5312 7.19173 32.2922 6.95814 30.6489L6.30408 26.0766L5.92931 25.8887C4.85478 25.3514 4.18752 24.2718 4.18752 23.0713C4.18752 22.3939 4.41095 21.7226 4.81822 21.1812L7.23439 17.9587V16.5053C7.23439 15.898 7.30345 15.2957 7.40704 14.6985C7.11658 14.6691 6.8251 14.6457 6.53463 14.6142C4.03923 14.338 2.15627 12.2346 2.15627 9.72297V7.125C2.15627 6.56437 1.70025 6.10938 1.14064 6.10938C0.580017 6.10938 0.125015 5.65539 0.125015 5.09375C0.125015 2.29367 2.40306 0.015625 5.20314 0.015625H6.60674C8.0733 0.015625 9.26564 1.20898 9.26564 2.67453C9.26564 3.08484 9.16814 3.49719 8.98533 3.86383C8.50392 4.82461 8.25002 5.90219 8.25002 6.97672V7.42156C8.25002 7.53227 8.28048 7.63484 8.3272 7.73031ZM21.7527 4.07812C17.7227 4.07812 13.8634 5.54672 10.8439 8.14062H20.2141C24.8006 8.14062 29.3994 7.74047 33.9301 6.99297C30.3683 5.08562 26.3911 4.07812 22.3347 4.07812H21.7527ZM45.4808 25.1127L46.7127 23.2643L45.0207 19.2028C44.0467 16.8648 42.7356 14.727 41.139 12.8298L37.4249 13.4483C39.6968 16.0026 41.6417 18.824 43.1743 21.8902L44.5535 24.6496L45.4808 25.1127ZM40.6434 30.3107L43.6181 28.0804L42.8564 25.7963L41.3574 22.7991C39.712 19.5075 37.5802 16.5053 35.0432 13.8444C33.9189 14.0312 32.7875 14.1877 31.6541 14.337C34.2988 18.436 36.6063 22.7748 38.4842 27.2811L39.511 29.745L40.6434 30.3107ZM34.8563 34.3265L37.7031 32.9036V30.6885L36.6093 28.0631C34.6502 23.3628 32.2238 18.8412 29.4146 14.603C28.3787 14.7168 27.3438 14.8305 26.3048 14.9128C29.504 19.9889 31.8176 25.518 33.1714 31.3832L33.5492 33.0194L34.8563 34.3265ZM21.4531 36.6624V37.5938H24.7224L25.5126 34.4341C25.4963 27.8803 24.1161 21.5327 21.4044 15.5659L21.2307 15.184C20.1572 15.2165 19.0847 15.25 18.0132 15.25C17.7786 15.25 17.542 15.2419 17.3074 15.2398C20.0465 22.076 21.4531 29.2717 21.4531 36.6624ZM27.5428 34.4067L28.2497 37.2342L31.6094 35.8905V33.647L31.192 31.8382C29.8067 25.8328 27.3763 20.193 23.9831 15.055C23.7911 15.0662 23.6002 15.0804 23.4082 15.0905C26.1301 21.2117 27.5245 27.7056 27.5428 34.4067ZM19.9693 56.8591L21.7731 55.8283C23.7627 54.6908 25.5095 53.0983 26.8228 51.2214C29.4593 47.4555 33.4649 44.8951 37.9449 44.0298C37.4635 42.9715 36.783 42.0259 35.9339 41.253C32.4859 42.2362 29.4695 44.3629 27.4078 47.3082C25.9239 49.4288 23.9506 51.2285 21.701 52.5143L19.8982 53.5452C18.3941 54.4044 16.6817 54.8594 14.947 54.8594C14.0899 54.8594 13.2438 54.7497 12.4212 54.5344C12.084 55.1641 11.7763 55.808 11.5173 56.4722C13.9802 58.1541 17.3693 58.345 19.9693 56.8591ZM13.5485 52.689C15.3655 53.0069 17.281 52.7002 18.8907 51.78L20.6935 50.7491C22.6841 49.6116 24.4299 48.0191 25.7431 46.1423C27.7541 43.2691 30.5724 41.0895 33.8092 39.8281L30.8853 38.3666L28.0963 39.4818C26.642 40.5177 25.3836 41.7812 24.3599 43.2437C22.876 45.3643 20.9027 47.164 18.6531 48.4498L16.8493 49.4806C16.4969 49.6817 16.1242 49.8462 15.7494 50.0027L14.7094 51.192C14.293 51.6713 13.9111 52.1741 13.5485 52.689ZM9.26564 16.5053V18.2969C9.26564 18.5173 9.19455 18.7305 9.06252 18.9062L6.44322 22.399C6.29595 22.594 6.21877 22.8276 6.21877 23.0713C6.21877 23.4979 6.45541 23.8818 6.83728 24.0717L7.68837 24.4973C7.98595 24.6455 8.19212 24.933 8.23884 25.262L8.96705 30.3615C9.06049 31.0115 9.62517 31.5 10.2813 31.5H15.1197L16.9367 30.591L17.8456 32.408L16.6025 33.0295L19.0349 40.3258C19.2919 41.0997 19.4219 41.9051 19.4219 42.7196C19.4219 43.8795 19.1517 45.0088 18.647 46.0397C20.2181 44.9733 21.6106 43.6327 22.6963 42.0808C23.3168 41.1952 24.0156 40.3776 24.7803 39.625H20.4375C19.8769 39.625 19.4219 39.171 19.4219 38.6094V36.6624C19.4219 30.848 18.5251 25.1554 16.763 19.6761C15.9038 21.2645 14.2422 22.3594 12.3125 22.3594H10.2813C9.72064 22.3594 9.26564 21.9054 9.26564 21.3438C9.26564 18.5437 11.5437 16.2656 14.3438 16.2656H15.531C15.3919 15.9122 15.2528 15.5598 15.1055 15.2084C13.2154 15.1555 11.3213 15.0499 9.43728 14.8945C9.33572 15.4267 9.26564 15.963 9.26564 16.5053ZM15.1857 18.2969H14.3438C13.0194 18.2969 11.89 19.1459 11.4706 20.3281H12.3125C13.6369 20.3281 14.7663 19.4791 15.1857 18.2969ZM6.60674 2.04688H5.20314C3.80056 2.04688 2.61634 2.99953 2.26291 4.29242C3.38923 4.74031 4.18752 5.84125 4.18752 7.125V9.72297C4.18752 11.1977 5.29252 12.4327 6.75908 12.5952C16.047 13.628 25.5563 13.3691 34.767 11.8324L39.4744 11.0484C38.5634 10.1637 37.5813 9.3482 36.5321 8.6068C31.1635 9.63867 25.6781 10.1719 20.2141 10.1719H8.96806C8.23376 10.1719 7.54314 9.88648 7.02415 9.36648C6.50517 8.84648 6.21877 8.15688 6.21877 7.42258V6.97672C6.21877 5.58836 6.54681 4.19695 7.16838 2.95484C7.21205 2.86953 7.23439 2.77203 7.23439 2.67453C7.23439 2.3282 6.95306 2.04688 6.60674 2.04688Z" fill="#E8DAD6"/>
</svg>
