<svg width="24" height="13" viewBox="0 0 24 13" fill="none" xmlns="http://www.w3.org/2000/svg">
<path d="M21.5502 1.05057e-05H2.44737C1.7914 0.0208684 1.1691 0.303026 0.712281 0.78672C0.255458 1.27041 -7.62939e-06 1.91765 -7.62939e-06 2.59135C-7.62939e-06 3.26505 0.255458 3.91229 0.712281 4.39598C1.1691 4.87968 1.7914 5.16184 2.44737 5.18269H21.5526C22.2086 5.16184 22.8309 4.87968 23.2877 4.39598C23.7445 3.91229 24 3.26505 24 2.59135C24 1.91765 23.7445 1.27041 23.2877 0.78672C22.8309 0.303026 22.2086 0.0208684 21.5526 1.05057e-05H21.5502ZM21.5502 7.05733H2.44737C1.7914 7.07818 1.1691 7.36034 0.712281 7.84404C0.255458 8.32773 -7.62939e-06 8.97497 -7.62939e-06 9.64867C-7.62939e-06 10.3224 0.255458 10.9696 0.712281 11.4533C1.1691 11.937 1.7914 12.2192 2.44737 12.24H21.5526C22.2086 12.2192 22.8309 11.937 23.2877 11.4533C23.7445 10.9696 24 10.3224 24 9.64867C24 8.97497 23.7445 8.32773 23.2877 7.84404C22.8309 7.36034 22.2086 7.07818 21.5526 7.05733H21.5502Z" fill="#6B4B3E"/>
</svg>
