<svg width="24" height="24" viewBox="0 0 24 24" fill="none" xmlns="http://www.w3.org/2000/svg">
<g id="Icon/Fill/shopping-cart">
<path id="Mask" fill-rule="evenodd" clip-rule="evenodd" d="M21.083 6.94821C20.716 6.35421 20.08 6.00021 19.382 6.00021H6.582L5.965 3.73721C5.846 3.30221 5.451 3.00021 5 3.00021H3C2.447 3.00021 2 3.44821 2 4.00021C2 4.55221 2.447 5.00021 3 5.00021H4.236L7.035 15.2632C7.154 15.6982 7.549 16.0002 8 16.0002H17C17.379 16.0002 17.725 15.7862 17.895 15.4472L21.171 8.89421C21.483 8.26921 21.45 7.54221 21.083 6.94821ZM7.5 18C6.672 18 6 18.671 6 19.5C6 20.329 6.672 21 7.5 21C8.328 21 9 20.329 9 19.5C9 18.671 8.328 18 7.5 18ZM16 19.5C16 18.671 16.672 18 17.5 18C18.328 18 19 18.671 19 19.5C19 20.329 18.328 21 17.5 21C16.672 21 16 20.329 16 19.5Z" fill="#6B4B3E"/>
</g>
</svg>
