<svg width="142" height="102" viewBox="0 0 142 102" fill="none" xmlns="http://www.w3.org/2000/svg">
<path d="M-61.0265 27.0603L-4.06219 101.991H-118L-61.0265 27.0603Z" fill="url(#paint0_linear_19_19430)" fill-opacity="0.5"/>
<path d="M-61.0265 27.0603L-83.836 101.991H-118L-61.0265 27.0603Z" fill="url(#paint1_linear_19_19430)" fill-opacity="0.5"/>
<path d="M85.0265 27.0603L142 102H28.0622L85.0265 27.0603Z" fill="url(#paint2_linear_19_19430)" fill-opacity="0.5"/>
<path d="M85.0265 27.0603L62.2262 102H28.0622L85.0265 27.0603Z" fill="url(#paint3_linear_19_19430)" fill-opacity="0.5"/>
<path d="M10.5701 0L88.0948 101.971H-66.9546L10.5701 0Z" fill="url(#paint4_linear_19_19430)" fill-opacity="0.5"/>
<path d="M10.5701 0L-20.4707 101.971H-66.9546L10.5701 0Z" fill="url(#paint5_linear_19_19430)" fill-opacity="0.5"/>
<path d="M88.095 101.962H-20.4705L10.5701 0L88.095 101.962Z" fill="url(#paint6_linear_19_19430)" fill-opacity="0.5"/>
<defs>
<linearGradient id="paint0_linear_19_19430" x1="-57.521" y1="96.7405" x2="135.732" y2="-157.107" gradientUnits="userSpaceOnUse">
<stop stop-color="white"/>
<stop offset="0.635906" stop-color="white" stop-opacity="0"/>
</linearGradient>
<linearGradient id="paint1_linear_19_19430" x1="-57.521" y1="96.7405" x2="135.732" y2="-157.107" gradientUnits="userSpaceOnUse">
<stop stop-color="white"/>
<stop offset="0.635906" stop-color="white" stop-opacity="0"/>
</linearGradient>
<linearGradient id="paint2_linear_19_19430" x1="-57.521" y1="96.7405" x2="135.732" y2="-157.107" gradientUnits="userSpaceOnUse">
<stop stop-color="white"/>
<stop offset="0.635906" stop-color="white" stop-opacity="0"/>
</linearGradient>
<linearGradient id="paint3_linear_19_19430" x1="-57.521" y1="96.7405" x2="135.732" y2="-157.107" gradientUnits="userSpaceOnUse">
<stop stop-color="white"/>
<stop offset="0.635906" stop-color="white" stop-opacity="0"/>
</linearGradient>
<linearGradient id="paint4_linear_19_19430" x1="-57.521" y1="96.7405" x2="135.732" y2="-157.107" gradientUnits="userSpaceOnUse">
<stop stop-color="white"/>
<stop offset="0.635906" stop-color="white" stop-opacity="0"/>
</linearGradient>
<linearGradient id="paint5_linear_19_19430" x1="-57.521" y1="96.7405" x2="135.732" y2="-157.107" gradientUnits="userSpaceOnUse">
<stop stop-color="white"/>
<stop offset="0.635906" stop-color="white" stop-opacity="0"/>
</linearGradient>
<linearGradient id="paint6_linear_19_19430" x1="-57.521" y1="96.7405" x2="135.732" y2="-157.107" gradientUnits="userSpaceOnUse">
<stop stop-color="white"/>
<stop offset="0.635906" stop-color="white" stop-opacity="0"/>
</linearGradient>
</defs>
</svg>
